<svg xmlns="http://www.w3.org/2000/svg" viewBox="0 0 1891.91 225.09"><defs><style>.cls-1{fill:#b05138;}</style></defs><g id="Calque_2" data-name="Calque 2"><g id="Calque_1-2" data-name="Calque 1"><path class="cls-1" d="M86.35,74.38c-28.81,0-48.18,16.91-55.95,35.15V0H0V222.15H27.42L30,189.26c8.93,21.92,30.55,35.83,56.31,35.83,40,0,70.18-32.77,70.18-76.23C156.53,100,121.22,74.38,86.35,74.38ZM78.91,217.56c-27,0-47.89-22.47-48.51-52.24V133.59c.61-29.63,21.6-52,48.83-52s45,26.39,45,67.24C124.19,190.59,106.41,217.56,78.91,217.56Z"/><rect class="cls-1" x="168.48" width="30.4" height="222.15"/><path class="cls-1" d="M287.49,74.38c-37.52,0-76.32,28.52-76.32,76.24,0,46,40.46,74.47,77.94,74.47,36.18,0,61.28-17.52,68.86-48.07l.24-1-5.15-.93-.21.89c-6.33,26.56-28,43.06-56.63,43.06-34.48,0-52.71-23.45-52.71-67.82,0-2.64,0-5,.22-7.26H358.64v-1C358.64,102.59,329.38,74.38,287.49,74.38Zm-43.6,64.68c2.51-38.76,18-60.09,43.6-60.09,27.15,0,39.9,19.1,40.1,60.09Z"/><path class="cls-1" d="M474.41,168c-.3,27.36-19.89,49.61-43.66,49.61-14.46,0-31.69-6.26-31.69-36.07V77.32h-30.4v96.82c0,31,20.44,51,52.07,51,25.55,0,45.33-12.89,53.87-34.78l1.14,31.84h29.07V77.32h-30.4Z"/><path class="cls-1" d="M811.81,184.13l-4.8-1.45-.37.72C795.15,205.71,772.86,219,747,219c-23.74,0-38.48-16.86-38.48-44a101,101,0,0,1,2.08-21.09c98-2.12,112.72-31,112.72-48,0-18.87-18.71-31.55-46.57-31.55-45.11,0-85.4,33.1-95.32,74.6A95.22,95.22,0,0,1,667,147.14a103,103,0,0,0,6-33.57h-5.18a97.57,97.57,0,0,1-5.94,32.34,73.8,73.8,0,0,1-18.43-7.74,62.72,62.72,0,0,1-9.06-6.61,55.89,55.89,0,0,1-7.54-8.22,40.78,40.78,0,0,1-8.16-20.15,26,26,0,0,1,1.06-10.52,18.53,18.53,0,0,1,5.67-8.48,20.35,20.35,0,0,1,9.26-4.48A22.58,22.58,0,0,1,645,80.2a30.18,30.18,0,0,1,16.79,12.71,37.28,37.28,0,0,1,6,20.66H673a42.47,42.47,0,0,0-6.9-23.48,35.21,35.21,0,0,0-19.71-14.71,27.47,27.47,0,0,0-12.69-.53,25.23,25.23,0,0,0-11.48,5.6,23.43,23.43,0,0,0-7.1,10.68,30.82,30.82,0,0,0-1.25,12.51A45.52,45.52,0,0,0,623,126.16a60.49,60.49,0,0,0,8.23,8.91,67.85,67.85,0,0,0,9.78,7.09,78.16,78.16,0,0,0,19.2,8,124.24,124.24,0,0,1-20.46,33.86c-18.09,21.29-40.76,33.5-62.2,33.5-17.38,0-26.2-9.56-26.2-28.43,0-6.64,1.37-14.82,4.17-25l23.62-86.78H548.69l-23.16,83.94c-2.26,8.89-3.27,15.59-3.27,21.7,0,26.38,17.53,42.13,46.9,42.13,27.15,0,53.38-13,73.86-36.64a128.41,128.41,0,0,0,22.36-37,100.57,100.57,0,0,0,15.14,2,83.56,83.56,0,0,0-1.41,15.12c0,33.29,25.54,56.54,62.1,56.54,31.11,0,57.3-14.92,70.07-39.92ZM775.81,79c16.11,0,23.93,6.8,23.93,20.79,0,31.76-28.08,47.43-88.36,49.26C722.13,100.91,752.22,79,775.81,79Z"/><path class="cls-1" d="M953.59,92.25c-3.28-11-14-17.82-28-17.82-17,0-38.87,11.78-56.37,41.92l9.73-39H849.45L809.79,222.15h30.47l19.63-71.91c7.26-21.42,16.91-38.87,28.41-51.13S913.44,79.7,925.56,79.7c11.58,0,20.39,5.39,23,14.06,2.87,9.61-2.57,20.63-13.87,28.05l2.89,4.41C950.86,117.48,957.15,104.15,953.59,92.25Z"/><path class="cls-1" d="M1025,28.31,992.06,39,981.63,77.32H958.07l-3.22,4.89h25.46l-27.16,99.92a46.63,46.63,0,0,0-1.65,11.12c0,19.34,15.24,31.84,38.81,31.84,29,0,50.52-17.62,59.15-48.34l.28-1-4.81-1-.25.85c-7.84,26.44-25.27,42.23-46.61,42.23-12.4,0-18.43-5.26-18.43-16.08a57.44,57.44,0,0,1,1.58-11.51l29.56-108.06H1061l3.23-4.89H1012Z"/><path class="cls-1" d="M1136,101.27h18.47l3.89,8.34h5.13l-15.71-32.53h-2.48l-16.68,32.53h3.21Zm9.53-19.06,7.88,16.86h-16.31Z"/><path class="cls-1" d="M1173,96.32h9.67a6.28,6.28,0,0,1,3.25,2.46,22.86,22.86,0,0,1,2.61,5.24,36.76,36.76,0,0,0,1.44,3.39,10.11,10.11,0,0,0,1.45,2.2h5v-.36a5.9,5.9,0,0,1-1.76-2.14,34,34,0,0,1-1.95-4.23,18.69,18.69,0,0,0-2.43-4.56,8.72,8.72,0,0,0-3-2.55q8-1.74,8-8.84a7.83,7.83,0,0,0-3.6-7.08q-3.6-2.31-10.19-2.31h-13.25v32.07H1173Zm0-16.58h8.57q9,0,9,7.19t-9,7.24H1173Z"/><path class="cls-1" d="M1217.35,110.07q6.56,0,10.72-2.79a11.06,11.06,0,0,0,5-7.79h-4.13a9.68,9.68,0,0,1-3.75,6.18,12.38,12.38,0,0,1-7.56,2.2q-6,0-9.21-3.73t-3.21-10.7q0-6.82,3.18-10.5t9.15-3.66a12.49,12.49,0,0,1,7.6,2.22,9.66,9.66,0,0,1,3.8,6.16H1233a11.06,11.06,0,0,0-5-7.79q-4.17-2.79-10.81-2.79-8.16,0-12.54,4.26t-4.37,12.1q0,8,4.4,12.32T1217.35,110.07Z"/><polygon class="cls-1" points="1243.88 93.48 1264.45 93.48 1264.45 109.61 1269.22 109.61 1269.22 77.54 1264.45 77.54 1264.45 91.33 1243.88 91.33 1243.88 77.54 1239.11 77.54 1239.11 109.61 1243.88 109.61 1243.88 93.48"/><rect class="cls-1" x="1278.79" y="77.54" width="4.77" height="32.07"/><polygon class="cls-1" points="1303.72 109.61 1308.48 109.61 1308.48 79.74 1322 79.74 1322 77.54 1290.16 77.54 1290.16 79.74 1303.72 79.74 1303.72 109.61"/><polygon class="cls-1" points="1353.89 107.41 1331.49 107.41 1331.49 93.48 1351.28 93.48 1351.28 91.33 1331.49 91.33 1331.49 79.74 1353.89 79.74 1353.89 77.54 1326.72 77.54 1326.72 109.61 1353.89 109.61 1353.89 107.41"/><path class="cls-1" d="M1375.75,79.28a12.54,12.54,0,0,1,7.61,2.22,9.7,9.7,0,0,1,3.8,6.16h4.12a11.06,11.06,0,0,0-5-7.79q-4.17-2.79-10.81-2.79-8.16,0-12.53,4.26t-4.38,12.1q0,8,4.4,12.32t12.6,4.31q6.56,0,10.72-2.79a11.06,11.06,0,0,0,5-7.79h-4.12a9.65,9.65,0,0,1-3.76,6.18,12.36,12.36,0,0,1-7.56,2.2q-6,0-9.21-3.73t-3.21-10.7q0-6.82,3.19-10.5T1375.75,79.28Z"/><polygon class="cls-1" points="1407.96 109.61 1412.73 109.61 1412.73 79.74 1426.24 79.74 1426.24 77.54 1394.4 77.54 1394.4 79.74 1407.96 79.74 1407.96 109.61"/><path class="cls-1" d="M1457.54,106.52q3.53-3.55,3.53-10.24V77.54h-4.77V97.33q0,5.22-2.45,7.88c-1.63,1.78-4.24,2.66-7.81,2.66s-6.26-.9-7.88-2.7-2.43-4.42-2.43-7.84V77.54H1431V96.28q0,6.69,3.55,10.24t11.53,3.55Q1454,110.07,1457.54,106.52Z"/><path class="cls-1" d="M1473.53,96.32h9.67a6.28,6.28,0,0,1,3.25,2.46,22.86,22.86,0,0,1,2.61,5.24,34,34,0,0,0,1.45,3.39,9.74,9.74,0,0,0,1.44,2.2h5v-.36a6,6,0,0,1-1.76-2.14,34,34,0,0,1-2-4.23,18.69,18.69,0,0,0-2.43-4.56,8.72,8.72,0,0,0-3-2.55q8-1.74,8-8.84a7.83,7.83,0,0,0-3.6-7.08q-3.6-2.31-10.19-2.31h-13.25v32.07h4.77Zm0-16.58h8.57q9,0,9,7.19t-9,7.24h-8.57Z"/><polygon class="cls-1" points="1528.97 107.41 1506.57 107.41 1506.57 93.48 1526.36 93.48 1526.36 91.33 1506.57 91.33 1506.57 79.74 1528.97 79.74 1528.97 77.54 1501.8 77.54 1501.8 109.61 1528.97 109.61 1528.97 107.41"/><path class="cls-1" d="M1573.81,105.28q4.7-4.32,4.69-12.26,0-7.6-4.67-11.54t-13.65-3.94h-12.47v32.07h12.74Q1569.11,109.61,1573.81,105.28Zm-21.33-25.54h8.61q6.24,0,9.44,3.37t3.21,9.91q0,7-3.28,10.68t-9.37,3.71h-8.61Z"/><path class="cls-1" d="M1586.25,81.75a2,2,0,0,0,1-.27,7.36,7.36,0,0,1-.71,3.32,7.17,7.17,0,0,1-2,2.59l.69.55a7.68,7.68,0,0,0,2.79-3.07,8.92,8.92,0,0,0,1.1-4.22,4.18,4.18,0,0,0-.73-2.63,2.41,2.41,0,0,0-2-.94,2.46,2.46,0,0,0-1.81.66,2.35,2.35,0,0,0-.66,1.72,2.19,2.19,0,0,0,2.29,2.29Z"/><rect class="cls-1" x="1597.34" y="77.54" width="4.77" height="32.07"/><polygon class="cls-1" points="1636.01 102.42 1616.49 77.54 1611.68 77.54 1611.68 109.61 1615.71 109.61 1615.71 81.71 1637.66 109.61 1640.04 109.61 1640.04 77.54 1636.01 77.54 1636.01 102.42"/><polygon class="cls-1" points="1644.76 79.74 1658.32 79.74 1658.32 109.61 1663.09 109.61 1663.09 79.74 1676.61 79.74 1676.61 77.54 1644.76 77.54 1644.76 79.74"/><polygon class="cls-1" points="1681.32 109.61 1708.5 109.61 1708.5 107.41 1686.09 107.41 1686.09 93.48 1705.88 93.48 1705.88 91.33 1686.09 91.33 1686.09 79.74 1708.5 79.74 1708.5 77.54 1681.32 77.54 1681.32 109.61"/><path class="cls-1" d="M1703.18,69.43c1.16-.8,1.74-1.51,1.74-2.16a1.08,1.08,0,0,0-.39-.84,1.57,1.57,0,0,0-1.07-.35,3.17,3.17,0,0,0-2.43,1.19l-6.46,7.06h1.6Z"/><path class="cls-1" d="M1740.5,107.11a37.13,37.13,0,0,1-2-4.23,19.05,19.05,0,0,0-2.42-4.56,8.84,8.84,0,0,0-3-2.55q8-1.74,8-8.84a7.83,7.83,0,0,0-3.6-7.08q-3.58-2.31-10.19-2.31h-13.24v32.07h4.76V96.32h9.67a6.24,6.24,0,0,1,3.25,2.46,22.86,22.86,0,0,1,2.61,5.24,36.47,36.47,0,0,0,1.45,3.39,9.74,9.74,0,0,0,1.44,2.2h5v-.36A6,6,0,0,1,1740.5,107.11Zm-13.08-12.94h-8.57V79.74h8.57q9,0,9,7.19T1727.42,94.17Z"/><rect class="cls-1" x="1749" y="77.54" width="4.77" height="32.07"/><polygon class="cls-1" points="1763.34 109.61 1790.52 109.61 1790.52 107.41 1768.11 107.41 1768.11 93.48 1787.9 93.48 1787.9 91.33 1768.11 91.33 1768.11 79.74 1790.52 79.74 1790.52 77.54 1763.34 77.54 1763.34 109.61"/><path class="cls-1" d="M1821.44,97.33c0,3.48-.81,6.11-2.45,7.88s-4.24,2.66-7.81,2.66-6.26-.9-7.88-2.7-2.43-4.42-2.43-7.84V77.54h-4.77V96.28q0,6.69,3.56,10.24t11.52,3.55q8,0,11.5-3.55t3.53-10.24V77.54h-4.77Z"/><path class="cls-1" d="M1860.32,107.11a37.13,37.13,0,0,1-2-4.23,19.05,19.05,0,0,0-2.42-4.56,8.84,8.84,0,0,0-3-2.55q8-1.74,8-8.84a7.83,7.83,0,0,0-3.6-7.08q-3.58-2.31-10.19-2.31h-13.24v32.07h4.76V96.32h9.67a6.24,6.24,0,0,1,3.25,2.46,22.86,22.86,0,0,1,2.61,5.24,36.47,36.47,0,0,0,1.45,3.39,9.74,9.74,0,0,0,1.44,2.2h5v-.36A6,6,0,0,1,1860.32,107.11Zm-13.08-12.94h-8.57V79.74h8.57q9,0,9,7.19T1847.24,94.17Z"/><polygon class="cls-1" points="1889.53 76.58 1876.47 110.62 1878.86 110.62 1891.91 76.58 1889.53 76.58"/><path class="cls-1" d="M1144.08,133.81h-12.46v32.07h12.74q8.66,0,13.35-4.33t4.7-12.26q0-7.6-4.67-11.54T1144.08,133.81ZM1154.37,160q-3.28,3.71-9.37,3.71h-8.62V136H1145q6.23,0,9.44,3.36t3.2,9.92Q1157.64,156.26,1154.37,160Z"/><polygon class="cls-1" points="1196.45 163.68 1174.05 163.68 1174.05 149.75 1193.84 149.75 1193.84 147.6 1174.05 147.6 1174.05 136.01 1196.45 136.01 1196.45 133.81 1169.28 133.81 1169.28 165.88 1196.45 165.88 1196.45 163.68"/><path class="cls-1" d="M1189,123.54l-6.47,7.06h1.61l7-4.9q1.74-1.2,1.74-2.16a1.1,1.1,0,0,0-.39-.85,1.62,1.62,0,0,0-1.08-.34A3.17,3.17,0,0,0,1189,123.54Z"/><path class="cls-1" d="M1218.31,135.55a12.52,12.52,0,0,1,7.61,2.22,9.7,9.7,0,0,1,3.8,6.16h4.12a11,11,0,0,0-4.94-7.79q-4.17-2.79-10.82-2.79-8.16,0-12.53,4.26t-4.38,12.1q0,8,4.4,12.32c2.94,2.87,7.13,4.31,12.6,4.31q6.55,0,10.73-2.8a11,11,0,0,0,4.94-7.78h-4.12a9.68,9.68,0,0,1-3.76,6.18,12.34,12.34,0,0,1-7.56,2.2q-6,0-9.21-3.73c-2.13-2.49-3.21-6.06-3.21-10.7s1.07-8.05,3.19-10.5S1214.34,135.55,1218.31,135.55Z"/><path class="cls-1" d="M1247.09,164.37a22.89,22.89,0,0,0,18.58,0,13.69,13.69,0,0,0,5.93-5.71,18.27,18.27,0,0,0,2.06-8.95,17.86,17.86,0,0,0-2.06-8.82,13.55,13.55,0,0,0-5.93-5.62,23.44,23.44,0,0,0-18.58,0,13.51,13.51,0,0,0-6,5.62,17.86,17.86,0,0,0-2.06,8.82,18.27,18.27,0,0,0,2.06,8.95A13.65,13.65,0,0,0,1247.09,164.37Zm0-25.16q3.25-3.66,9.26-3.66t9.23,3.69q3.23,3.69,3.23,10.47t-3.25,10.67q-3.25,3.76-9.21,3.76t-9.26-3.76q-3.26-3.75-3.25-10.67T1247.13,139.21Z"/><path class="cls-1" d="M1306.9,163.38a35.64,35.64,0,0,1-1.94-4.23,19.4,19.4,0,0,0-2.43-4.56,8.73,8.73,0,0,0-3-2.55q8-1.74,8-8.84a7.84,7.84,0,0,0-3.59-7.08q-3.6-2.31-10.2-2.31h-13.24v32.07h4.76V152.59h9.67a6.3,6.3,0,0,1,3.26,2.45,24,24,0,0,1,2.61,5.25,36.76,36.76,0,0,0,1.44,3.39,9.74,9.74,0,0,0,1.44,2.2h5v-.37A5.87,5.87,0,0,1,1306.9,163.38Zm-13.08-12.94h-8.57V136h8.57q9,0,9,7.19T1293.82,150.44Z"/><path class="cls-1" d="M1327.22,133.35l-16.67,32.53h3.2l4.17-8.34h18.47l3.89,8.34h5.14l-15.72-32.53Zm-8.2,22,8.43-16.86,7.89,16.86Z"/><polygon class="cls-1" points="1342.58 136.01 1356.14 136.01 1356.14 165.88 1360.9 165.88 1360.9 136.01 1374.42 136.01 1374.42 133.81 1342.58 133.81 1342.58 136.01"/><rect class="cls-1" x="1381.02" y="133.81" width="4.76" height="32.07"/><path class="cls-1" d="M1427,140.89a13.55,13.55,0,0,0-5.93-5.62,23.44,23.44,0,0,0-18.58,0,13.57,13.57,0,0,0-6,5.62,17.86,17.86,0,0,0-2.06,8.82,18.27,18.27,0,0,0,2.06,8.95,13.71,13.71,0,0,0,6,5.71,22.89,22.89,0,0,0,18.58,0,13.69,13.69,0,0,0,5.93-5.71,18.16,18.16,0,0,0,2.06-8.95A17.75,17.75,0,0,0,1427,140.89Zm-6,19.49q-3.26,3.76-9.21,3.76t-9.25-3.76q-3.25-3.75-3.26-10.67t3.26-10.5q3.24-3.66,9.25-3.66t9.23,3.69q3.24,3.69,3.23,10.47T1421,160.38Z"/><polygon class="cls-1" points="1439.94 137.98 1461.89 165.88 1464.28 165.88 1464.28 133.81 1460.24 133.81 1460.24 158.69 1440.72 133.81 1435.91 133.81 1435.91 165.88 1439.94 165.88 1439.94 137.98"/><polygon class="cls-1" points="1483.89 166.89 1496.94 132.84 1494.56 132.84 1481.5 166.89 1483.89 166.89"/><polygon class="cls-1" points="1149.81 216.47 1137.03 190.08 1131.57 190.08 1131.57 222.15 1134.41 222.15 1134.41 194.84 1147.79 222.15 1150.04 222.15 1162.5 195.21 1162.5 222.15 1167.27 222.15 1167.27 190.08 1162.04 190.08 1149.81 216.47"/><path class="cls-1" d="M1188.71,189.62,1172,222.15h3.21l4.17-8.34h18.47l3.89,8.34h5.13l-15.72-32.53Zm-8.2,22,8.43-16.86,7.88,16.86Z"/><polygon class="cls-1" points="1214.28 179.86 1208.6 186.87 1210.84 186.87 1215.88 182.01 1220.92 186.87 1223.17 186.87 1217.49 179.86 1214.28 179.86"/><rect class="cls-1" x="1213.5" y="190.08" width="4.76" height="32.07"/><polygon class="cls-1" points="1224.86 192.28 1238.43 192.28 1238.43 222.15 1243.19 222.15 1243.19 192.28 1256.71 192.28 1256.71 190.08 1224.86 190.08 1224.86 192.28"/><path class="cls-1" d="M1287.84,219.65a36.59,36.59,0,0,1-1.95-4.24,19.16,19.16,0,0,0-2.42-4.55,8.73,8.73,0,0,0-3-2.55q8-1.74,8-8.84a7.83,7.83,0,0,0-3.6-7.08q-3.58-2.31-10.19-2.31h-13.24v32.07h4.76V208.86h9.67a6.27,6.27,0,0,1,3.25,2.45,23.57,23.57,0,0,1,2.62,5.25,34.19,34.19,0,0,0,1.44,3.39,9.74,9.74,0,0,0,1.44,2.2h5v-.37A5.87,5.87,0,0,1,1287.84,219.65Zm-13.08-12.94h-8.57V192.28h8.57q9,0,9,7.19T1274.76,206.71Z"/><rect class="cls-1" x="1296.34" y="190.08" width="4.76" height="32.07"/><path class="cls-1" d="M1333.62,205.56a49.56,49.56,0,0,0-7.95-2.2,38.26,38.26,0,0,1-6.21-1.69,7.52,7.52,0,0,1-3-1.93,3.87,3.87,0,0,1-.87-2.56,4.43,4.43,0,0,1,2.27-3.94,12.55,12.55,0,0,1,6.62-1.42,13.75,13.75,0,0,1,7,1.51,6.92,6.92,0,0,1,3.23,4.86h4.08a8.52,8.52,0,0,0-4.1-6.3q-3.56-2.28-9.92-2.27a21.21,21.21,0,0,0-10.12,2.08,6.68,6.68,0,0,0-3.85,6.21,6.38,6.38,0,0,0,3.36,5.75,31.39,31.39,0,0,0,10,3.32,35.84,35.84,0,0,1,6.48,1.79,8.06,8.06,0,0,1,3.28,2.2,4.87,4.87,0,0,1,1,3.07,5.31,5.31,0,0,1-2.5,4.72q-2.49,1.65-7.22,1.65-5.31,0-8-2a8,8,0,0,1-3-6.21H1310a9.82,9.82,0,0,0,4.4,7.7q4,2.7,10.91,2.7,6.63,0,10.51-2.41a8,8,0,0,0,2.36-11.54A10.65,10.65,0,0,0,1333.62,205.56Z"/><polygon class="cls-1" points="1346.61 222.15 1373.78 222.15 1373.78 219.95 1351.37 219.95 1351.37 206.02 1371.17 206.02 1371.17 203.87 1351.37 203.87 1351.37 192.28 1373.78 192.28 1373.78 190.08 1346.61 190.08 1346.61 222.15"/><path class="cls-1" d="M1418.64,194q-4.68-3.95-13.66-3.94h-12.46v32.07h12.74q8.65,0,13.35-4.33t4.7-12.26Q1423.31,198,1418.64,194Zm-3.37,22.22q-3.27,3.7-9.37,3.71h-8.62V192.28h8.62q6.22,0,9.44,3.36t3.21,9.92Q1418.55,212.54,1415.27,216.24Z"/><path class="cls-1" d="M1431.24,189.62a2.44,2.44,0,0,0-1.81.66,2.32,2.32,0,0,0-.67,1.72,2.27,2.27,0,0,0,.64,1.65,2.23,2.23,0,0,0,1.65.64,1.93,1.93,0,0,0,1-.27,7.26,7.26,0,0,1-.71,3.32,7,7,0,0,1-1.95,2.59l.69.55a7.7,7.7,0,0,0,2.8-3.07,8.92,8.92,0,0,0,1.1-4.22,4.16,4.16,0,0,0-.74-2.63A2.4,2.4,0,0,0,1431.24,189.62Z"/><path class="cls-1" d="M1465.51,193.74a12.83,12.83,0,0,0-4.56-3.05,17.78,17.78,0,0,0-14.25.92,13.45,13.45,0,0,0-5.41,5.71,18.91,18.91,0,0,0-1.9,8.7,19.37,19.37,0,0,0,1.9,8.8,13.54,13.54,0,0,0,5.41,5.77,17.46,17.46,0,0,0,14.25.92,12.61,12.61,0,0,0,4.56-3.12v3.76h20.39V220h-15.62v-14h13v-2h-13V192.28h15.62v-2.2h-20.39Zm-1.33,20a11.05,11.05,0,0,1-3.78,5,9.55,9.55,0,0,1-5.75,1.77,9.18,9.18,0,0,1-5.61-1.74,10.87,10.87,0,0,1-3.62-5,21.64,21.64,0,0,1-1.26-7.77,21.07,21.07,0,0,1,1.26-7.67,10.82,10.82,0,0,1,3.62-5,9.19,9.19,0,0,1,5.61-1.75,9.67,9.67,0,0,1,5.75,1.75,11,11,0,0,1,3.78,5,20.08,20.08,0,0,1,1.33,7.65A20.35,20.35,0,0,1,1464.18,213.74Z"/><path class="cls-1" d="M1516.83,209.87q0,5.22-2.45,7.88t-7.81,2.66q-5.46,0-7.89-2.7t-2.42-7.84V190.08h-4.77v18.74q0,6.69,3.55,10.24t11.53,3.55q8,0,11.5-3.55t3.53-10.24V190.08h-4.77Z"/><polygon class="cls-1" points="1544.14 217.16 1531.35 190.08 1526.09 190.08 1541.98 222.61 1544.46 222.61 1561 190.08 1557.88 190.08 1544.14 217.16"/><path class="cls-1" d="M1591.91,219.65a33.5,33.5,0,0,1-2-4.24,18.79,18.79,0,0,0-2.43-4.55,8.7,8.7,0,0,0-3-2.55q8-1.74,8-8.84a7.82,7.82,0,0,0-3.59-7.08q-3.6-2.31-10.2-2.31h-13.24v32.07h4.77V208.86h9.66a6.3,6.3,0,0,1,3.26,2.45,24,24,0,0,1,2.61,5.25,36.76,36.76,0,0,0,1.44,3.39,10.11,10.11,0,0,0,1.45,2.2h5v-.37A5.77,5.77,0,0,1,1591.91,219.65Zm-13.08-12.94h-8.57V192.28h8.57q9,0,9,7.19T1578.83,206.71Z"/><polygon class="cls-1" points="1598.53 222.15 1625.7 222.15 1625.7 219.95 1603.29 219.95 1603.29 206.02 1623.09 206.02 1623.09 203.87 1603.29 203.87 1603.29 192.28 1625.7 192.28 1625.7 190.08 1598.53 190.08 1598.53 222.15"/><polygon class="cls-1" points="1640.82 223.16 1643.2 223.16 1656.26 189.11 1653.88 189.11 1640.82 223.16"/></g></g></svg>